<mxfile host="65bd71144e">
    <diagram id="ywoCLZnFhi6FD_Qqlndh" name="Page-1">
        <mxGraphModel dx="1086" dy="743" grid="1" gridSize="10" guides="1" tooltips="1" connect="1" arrows="1" fold="1" page="1" pageScale="1" pageWidth="827" pageHeight="1169" math="0" shadow="0">
            <root>
                <mxCell id="0"/>
                <mxCell id="1" parent="0"/>
                <mxCell id="2" value="Random duck photos!" style="swimlane;startSize=40;" parent="1" vertex="1">
                    <mxGeometry x="111" y="140" width="606" height="380" as="geometry"/>
                </mxCell>
            </root>
        </mxGraphModel>
    </diagram>
</mxfile>